<svg id="svg" xmlns="http://www.w3.org/2000/svg" xmlns:xlink="http://www.w3.org/1999/xlink" width="400" height="400" viewBox="0, 0, 400,400"><g id="svgg"><path id="path0" d="M23.438 62.109 L 23.438 100.781 39.063 100.781 L 54.688 100.781 54.688 77.734 L 54.688 54.688 77.734 54.688 L 100.781 54.688 100.781 39.063 L 100.781 23.438 62.109 23.438 L 23.438 23.438 23.438 62.109 M137.500 39.063 L 137.500 54.688 185.938 54.688 L 234.375 54.688 234.375 39.063 L 234.375 23.438 185.938 23.438 L 137.500 23.438 137.500 39.063 M271.094 39.063 L 271.094 54.688 294.141 54.688 L 317.188 54.688 317.188 77.734 L 317.188 100.781 332.813 100.781 L 348.438 100.781 348.438 62.109 L 348.438 23.438 309.766 23.438 L 271.094 23.438 271.094 39.063 M23.438 185.938 L 23.438 234.375 39.063 234.375 L 54.688 234.375 54.688 185.938 L 54.688 137.500 39.063 137.500 L 23.438 137.500 23.438 185.938 M317.188 185.938 L 317.188 234.375 332.813 234.375 L 348.438 234.375 348.438 185.938 L 348.438 137.500 332.813 137.500 L 317.188 137.500 317.188 185.938 M267.188 312.109 L 267.188 357.031 282.422 357.031 L 297.656 357.031 297.656 338.481 L 297.656 319.930 326.172 348.438 L 354.688 376.946 365.817 365.817 L 376.946 354.688 348.828 326.563 L 320.711 298.438 338.871 298.438 L 357.031 298.438 357.031 282.813 L 357.031 267.188 312.109 267.188 L 267.188 267.188 267.188 312.109 M23.438 309.766 L 23.438 348.438 62.109 348.438 L 100.781 348.438 100.781 332.813 L 100.781 317.188 77.734 317.188 L 54.688 317.188 54.688 294.141 L 54.688 271.094 39.063 271.094 L 23.438 271.094 23.438 309.766 M137.500 332.813 L 137.500 348.438 185.938 348.438 L 234.375 348.438 234.375 332.813 L 234.375 317.188 185.938 317.188 L 137.500 317.188 137.500 332.813 " stroke="none" fill="#000000" fill-rule="evenodd"></path></g></svg>